:SAMPLES-PER-SECOND 30
:FULLY-SPECIFIED
:DEGREES
1
root  69.1224 40.5564 -25.0094 173.081 -86.7758 -170.722
RightUpLeg  -0.150406 -7.70828 -5.01371
RightLeg  1.15126 -6.4024 3.74024
RightFoot  -0.962905 0.0486054 -0.611137
RightToes  -1.74624e-010 0 -3.6325e-017
Spine  -2.68944 -0.373688 0.950696
Spine1  3.9386 -0.32637 -0.509286
HEad  -3.94552 0.164288 0.455248
LeftShoulder1  0.548911 0.545031 -11.15
LeftArm  -17.2019 5.78191 -2.83434
LeftForeArm  5.77117 0.92952 -2.09142
LeftHand  -0.244104 0.0205437 5.32207
RightShoulder  0.523139 -0.044596 7.58259
RightArm  -20.7778 1.92512 2.24884
RightForeArm  2.71538 -0.202088 3.09852
RightHand  -0.624499 1.9168 -10.0877
LeftUpLeg  2.07622 5.65334 3.71535
LeftLeg  -0.169442 14.9826 -4.46648
LeftFoot  -2.91376 -0.0397283 0.881638
LeftToes  -2.54691e-011 4.12133e-011 -4.68171e-012
2
root  69.1211 40.5564 -25.0159 173.107 -86.7695 -170.746
RightUpLeg  -0.152432 -7.69479 -4.9936
RightLeg  1.14512 -6.43973 3.73325
RightFoot  -0.957809 0.050241 -0.636544
RightToes  -1.74624e-010 0 -3.6325e-017
Spine  -2.41755 -0.358958 0.853977
Spine1  3.5319 -0.323911 -0.418905
HEad  -3.90081 -0.11372 0.565899
LeftShoulder1  0.56131 0.481091 -11.1749
LeftArm  -17.1265 5.85356 -2.70788
LeftForeArm  5.85494 0.920345 -2.10734
LeftHand  -0.244104 0.0205437 5.32207
RightShoulder  0.532706 -0.0136597 7.73992
RightArm  -20.597 1.80851 2.01506
RightForeArm  2.78007 -0.15357 3.14811
RightHand  -0.646531 2.17078 -10.1081
LeftUpLeg  2.07836 5.66729 3.72808
LeftLeg  -0.154055 14.9895 -4.46742
LeftFoot  -2.91815 -0.0417307 0.912761
LeftToes  -2.54691e-011 4.12133e-011 -4.68171e-012
3
root  69.1157 40.5564 -25.0266 173.11 -86.7494 -170.743
RightUpLeg  -0.165152 -7.67359 -4.96319
RightLeg  1.16335 -6.45397 3.71808
RightFoot  -0.952659 0.0530405 -0.680034
RightToes  -1.74624e-010 0 -3.6325e-017
Spine  -2.01038 -0.310852 0.647102
Spine1  2.89786 -0.3136 -0.184818
HEad  -3.64357 -0.390063 0.598801
LeftShoulder1  0.592729 0.316433 -11.2179
LeftArm  -16.9722 6.00899 -2.5091
LeftForeArm  5.96164 0.918215 -2.14042
LeftHand  -0.244104 0.0205437 5.32207
RightShoulder  0.536115 -0.0306769 7.93358
RightArm  -20.4081 1.64453 1.67073
RightForeArm  3.38423 -0.152541 3.16418
RightHand  -0.687488 2.86486 -9.87675
LeftUpLeg  2.08821 5.68168 3.75025
LeftLeg  -0.163022 14.9986 -4.46865
LeftFoot  -2.92964 -0.042848 0.930128
LeftToes  -2.54691e-011 4.12133e-011 -4.68171e-012
4
root  69.1062 40.5564 -25.0361 173.066 -86.7123 -170.674
RightUpLeg  -0.169907 -7.67058 -4.94499
RightLeg  1.14458 -6.41268 3.73202
RightFoot  -0.949115 0.0540176 -0.695213
RightToes  -1.74624e-010 0 -3.6325e-017
Spine  -1.81645 -0.273806 0.476743
Spine1  2.54055 -0.309408 0.0178374
HEad  -3.37061 -0.485189 0.526488
LeftShoulder1  0.625939 0.1402 -11.2457
LeftArm  -16.7996 6.22449 -2.33355
LeftForeArm  5.97942 0.851649 -2.18502
LeftHand  -0.244104 0.0205437 5.32207
RightShoulder  0.525654 -0.110739 7.99525
RightArm  -20.3568 1.60536 1.52631
RightForeArm  3.88985 -0.207774 3.13967
RightHand  -0.695731 3.13977 -9.68721
LeftUpLeg  2.0932 5.68462 3.77062
LeftLeg  -0.189992 15.0188 -4.47136
LeftFoot  -2.93315 -0.0395971 0.879599
LeftToes  -2.54691e-011 4.12133e-011 -4.68171e-012
5
root  69.0973 40.5564 -25.0427 173.103 -86.6817 -170.667
RightUpLeg  -0.159888 -7.71038 -4.95715
RightLeg  1.06697 -6.34088 3.79841
RightFoot  -0.944405 0.0538984 -0.693362
RightToes  -1.74624e-010 0 -3.6325e-017
Spine  -1.8722 -0.296863 0.429091
Spine1  2.55128 -0.336206 0.0405123
HEad  -3.25117 -0.492711 0.492895
LeftShoulder1  0.649375 0.0183212 -11.2779
LeftArm  -16.7564 6.4024 -2.17234
LeftForeArm  5.952 0.84263 -2.17273
LeftHand  -0.244104 0.0205437 5.32207
RightShoulder  0.517949 -0.1621 8.00345
RightArm  -20.3987 1.68395 1.56584
RightForeArm  3.56699 -0.24787 3.13451
RightHand  -0.659428 2.55032 -9.84017
LeftUpLeg  2.06677 5.68458 3.77994
LeftLeg  -0.1962 15.0495 -4.4755
LeftFoot  -2.92804 -0.0363804 0.829603
LeftToes  -2.54691e-011 4.12133e-011 -4.68171e-012
6
root  69.0926 40.5564 -25.0466 173.295 -86.6775 -170.83
RightUpLeg  -0.154902 -7.77401 -4.99174
RightLeg  1.01863 -6.27977 3.87149
RightFoot  -0.947956 0.0553141 -0.715355
RightToes  -1.74624e-010 0 -3.6325e-017
Spine  -1.94197 -0.352908 0.422997
Spine1  2.63252 -0.382362 -0.0123095
HEad  -3.11894 -0.445072 0.529907
LeftShoulder1  0.670057 -0.0783219 -11.366
LeftArm  -16.8243 6.48389 -1.99049
LeftForeArm  5.95268 0.986525 -2.10346
LeftHand  -0.244104 0.0205437 5.32207
RightShoulder  0.520166 -0.154136 8.03633
RightArm  -20.4158 1.73974 1.60303
RightForeArm  3.13022 -0.268273 3.14768
RightHand  -0.626186 2.00667 -9.99684
LeftUpLeg  2.0393 5.6815 3.77299
LeftLeg  -0.18713 15.0672 -4.47762
LeftFoot  -2.93408 -0.037062 0.840197
LeftToes  -2.54691e-011 4.12133e-011 -4.68171e-012
7
root  69.0909 40.5564 -25.0484 173.573 -86.6692 -171.11
RightUpLeg  -0.166213 -7.80855 -5.01655
RightLeg  1.05158 -6.24334 3.88932
RightFoot  -0.970271 0.0572887 -0.746032
RightToes  -1.74624e-010 0 -3.6325e-017
Spine  -1.86328 -0.363131 0.374453
Spine1  2.53804 -0.391177 -0.00179741
HEad  -2.90763 -0.372603 0.544178
LeftShoulder1  0.69562 -0.199183 -11.4616
LeftArm  -16.7028 6.57771 -1.83303
LeftForeArm  5.89856 0.978653 -2.13864
LeftHand  -0.244104 0.0205437 5.32207
RightShoulder  0.518184 -0.173142 8.06883
RightArm  -20.3337 1.71742 1.56163
RightForeArm  3.50946 -0.314118 3.1473
RightHand  -0.638226 2.30653 -9.81492
LeftUpLeg  2.05108 5.66904 3.7579
LeftLeg  -0.20062 15.0692 -4.47837
LeftFoot  -2.94715 -0.0362037 0.826855
LeftToes  -2.54691e-011 4.12133e-011 -4.68171e-012
8
root  69.0919 40.5564 -25.0498 173.847 -86.6087 -171.389
RightUpLeg  -0.196215 -7.7972 -5.01442
RightLeg  1.1045 -6.19701 3.86243
RightFoot  -0.999005 0.0566535 -0.736163
RightToes  -1.74624e-010 0 -3.6325e-017
Spine  -1.72137 -0.310701 0.347192
Spine1  2.3486 -0.332016 -0.0156634
HEad  -2.70857 -0.363034 0.591411
LeftShoulder1  0.717163 -0.316363 -11.4552
LeftArm  -16.2662 6.78634 -1.78305
LeftForeArm  5.68524 0.522681 -2.36424
LeftHand  -0.244104 0.0205437 5.32207
RightShoulder  0.507432 -0.251803 8.11853
RightArm  -20.2123 1.68504 1.48348
RightForeArm  3.91261 -0.362427 3.15553
RightHand  -0.664306 2.70871 -9.72369
LeftUpLeg  2.07743 5.66635 3.75446
LeftLeg  -0.227593 15.1009 -4.48967
LeftFoot  -2.94343 -0.0309309 0.744903
LeftToes  -2.54691e-011 4.12133e-011 -4.68171e-012
9
root  69.0933 40.5564 -25.0506 173.959 -86.5022 -171.492
RightUpLeg  -0.237232 -7.77507 -4.99641
RightLeg  1.12893 -6.10393 3.84745
RightFoot  -1.00912 0.0538767 -0.693025
RightToes  -1.74624e-010 0 -3.6325e-017
Spine  -1.64321 -0.267932 0.406255
Spine1  2.25531 -0.267477 -0.130193
HEad  -2.67584 -0.27647 0.654691
LeftShoulder1  0.727882 -0.37812 -11.4338
LeftArm  -15.9063 6.97654 -1.79373
LeftForeArm  5.48783 0.00563658 -2.5673
LeftHand  -0.244104 0.0205437 5.32207
RightShoulder  0.503721 -0.285092 8.18368
RightArm  -20.1693 1.65916 1.4395
RightForeArm  3.19902 -0.329017 3.20322
RightHand  -0.658775 2.30171 -10.1328
LeftUpLeg  2.0784 5.69731 3.77478
LeftLeg  -0.219444 15.1873 -4.51068
LeftFoot  -2.94481 -0.0301725 0.733116
LeftToes  -2.54691e-011 4.12133e-011 -4.68171e-012
10
root  69.0922 40.556 -25.0487 173.595 -86.3962 -171.134
RightUpLeg  -0.254209 -7.76078 -4.96717
RightLeg  1.14447 -5.98848 3.85575
RightFoot  -0.994494 0.0522124 -0.66717
RightToes  -1.74624e-010 0 -3.6325e-017
Spine  -1.61307 -0.27701 0.496033
Spine1  2.27866 -0.269601 -0.188328
HEad  -2.74747 -0.00390441 0.589538
LeftShoulder1  0.743329 -0.418961 -11.6531
LeftArm  -16.0528 6.92788 -1.71687
LeftForeArm  5.6546 0.110748 -2.48807
LeftHand  -0.244104 0.0205437 5.32207
RightShoulder  0.51231 -0.219373 8.12288
RightArm  -20.1672 1.56637 1.49005
RightForeArm  2.24607 -0.168745 3.26446
RightHand  -0.636189 1.73524 -10.517
LeftUpLeg  2.08316 5.74288 3.81648
LeftLeg  -0.174917 15.2694 -4.51543
LeftFoot  -3.00438 -0.0368161 0.836375
LeftToes  -2.54691e-011 4.12133e-011 -4.68171e-012
11
root  69.0866 40.554 -25.0388 172.69 -86.2933 -170.259
RightUpLeg  -0.226409 -7.73581 -4.91898
RightLeg  1.15142 -5.88745 3.86274
RightFoot  -0.983525 0.051625 -0.658044
RightToes  -1.74624e-010 0 -3.6325e-017
Spine  -1.59533 -0.280126 0.629288
Spine1  2.35738 -0.282276 -0.17402
HEad  -2.659 0.235686 0.389092
LeftShoulder1  0.772071 -0.494348 -12.0545
LeftArm  -16.6136 6.68804 -1.63136
LeftForeArm  6.27083 0.726272 -2.17262
LeftHand  -0.244104 0.0205437 5.32207
RightShoulder  0.514877 -0.174308 7.96008
RightArm  -20.08 1.40179 1.58652
RightForeArm  2.4442 0.122344 3.30994
RightHand  -0.640046 1.92854 -10.3215
LeftUpLeg  2.12228 5.77976 3.88004
LeftLeg  -0.131083 15.2923 -4.49582
LeftFoot  -3.1134 -0.0383012 0.859457
LeftToes  -2.54691e-011 4.12133e-011 -4.68171e-012
12
root  69.0827 40.5498 -25.0243 171.851 -86.1393 -169.426
RightUpLeg  -0.230056 -7.70851 -4.8735
RightLeg  1.16812 -5.74501 3.87693
RightFoot  -1.03936 0.0458856 -0.590752
RightToes  -1.74624e-010 0 -3.6325e-017
Spine  -1.62983 -0.230496 0.94673
Spine1  2.51968 -0.199662 -0.4018
HEad  -2.3635 0.20723 0.249419
LeftShoulder1  0.782439 -0.527906 -12.1616
LeftArm  -17.2079 6.64092 -1.96496
LeftForeArm  7.0592 0.853706 -1.88635
LeftHand  -0.244104 0.0205437 5.32207
RightShoulder  0.50486 -0.261571 8.0857
RightArm  -20.0795 1.29775 1.63472
RightForeArm  2.83464 0.590797 3.34443
RightHand  -0.657852 2.2077 -10.2328
LeftUpLeg  2.1296 5.84969 3.97146
LeftLeg  -0.0646895 15.3102 -4.50463
LeftFoot  -3.21949 -0.0315925 0.755187
LeftToes  -2.54691e-011 4.12133e-011 -4.68171e-012
13
root  69.0947 40.5408 -25.0149 171.844 -85.9047 -169.386
RightUpLeg  -0.375615 -7.71522 -4.87538
RightLeg  1.33562 -5.47272 3.90651
RightFoot  -1.23586 0.025866 -0.386954
RightToes  -1.74624e-010 0 -3.6325e-017
Spine  -1.62135 -0.195472 1.36097
Spine1  2.71015 -0.0855708 -0.877499
HEad  -2.2356 0.150752 0.194525
LeftShoulder1  0.744015 -0.390173 -11.8222
LeftArm  -17.7599 7.22365 -3.03947
LeftForeArm  7.97235 -0.347214 -1.74469
LeftHand  -0.244104 0.0205437 5.32207
RightShoulder  0.501653 -0.399037 8.73939
RightArm  -20.604 1.34929 1.8126
RightForeArm  1.68093 1.3786 3.35546
RightHand  -0.679569 1.75441 -11.2046
LeftUpLeg  2.0477 5.99737 4.07431
LeftLeg  0.0874795 15.3999 -4.58509
LeftFoot  -3.3324 -0.0309675 0.745473
LeftToes  -2.54691e-011 4.12133e-011 -4.68171e-012
14
root  69.1218 40.5261 -25.016 172.661 -85.637 -170.214
RightUpLeg  -0.629764 -7.73387 -4.92227
RightLeg  1.76189 -5.13108 3.88946
RightFoot  -1.58493 -0.00572414 -0.0586307
RightToes  -1.74624e-010 0 -3.6325e-017
Spine  -1.3001 -0.259845 1.48104
Spine1  2.69004 -0.130822 -1.01647
HEad  -2.55514 0.496917 -0.0195301
LeftShoulder1  0.695636 -0.155709 -11.7122
LeftArm  -18.612 8.55563 -4.63448
LeftForeArm  9.62816 -2.88381 -1.60323
LeftHand  -0.244104 0.0205437 5.32207
RightShoulder  0.528814 -0.395054 9.68977
RightArm  -21.6982 1.37523 2.50054
RightForeArm  -0.283246 2.77446 3.35763
RightHand  -0.776233 1.7298 -12.7754
LeftUpLeg  1.96757 6.15713 4.14264
LeftLeg  0.302217 15.5273 -4.67832
LeftFoot  -3.48516 -0.0345583 0.80537
LeftToes  -2.54691e-011 4.12133e-011 -4.68171e-012
